<?xml version="1.0" ?><svg data-name="Your Icons" id="Your_Icons" viewBox="0 0 48 48" xmlns="http://www.w3.org/2000/svg"><defs><style>.cls-1{fill:#939598;}</style></defs><title/><path class="cls-1" d="M11.75,36h20a4,4,0,0,0,4-4H36a4,4,0,0,0,4-4V16a4,4,0,0,0-4-4H16a4,4,0,0,0-4,4h-.25a4,4,0,0,0-4,4V32A4,4,0,0,0,11.75,36Zm22-12h-24V22h24ZM16,14H36a2,2,0,0,1,2,2V28a2,2,0,0,1-2,2h-.25V20a4,4,0,0,0-4-4H14A2,2,0,0,1,16,14Zm-4.25,4h20a2,2,0,0,1,2,2h-24A2,2,0,0,1,11.75,18Zm22,8v6a2,2,0,0,1-2,2h-20a2,2,0,0,1-2-2V26Z"/><path class="cls-1" d="M24.5,31h6a1,1,0,0,0,0-2h-6a1,1,0,0,0,0,2Z"/></svg>